<svg width="18" height="25" viewBox="0 0 18 25" fill="none" xmlns="http://www.w3.org/2000/svg">
<g id="Login 1" clip-path="url(#clip0_14_43)">
<g id="Group">
<path id="Vector" d="M8.84094 0C3.95036 0 -0.0288696 4.11684 -0.0288696 9.17704C-0.0288696 10.4969 0.232253 11.7571 0.746856 12.923C2.96456 17.9436 7.2165 23.2444 8.46713 24.7492C8.56083 24.8617 8.69743 24.9265 8.84119 24.9265C8.98494 24.9265 9.12154 24.8617 9.21524 24.7492C10.4654 23.2446 14.7173 17.9441 16.9358 12.923C17.4506 11.7571 17.7115 10.4969 17.7115 9.17704C17.711 4.11684 13.7318 0 8.84094 0ZM8.84094 13.9436C6.30047 13.9436 4.23343 11.8051 4.23343 9.17679C4.23343 6.54821 6.30047 4.40969 8.84094 4.40969C11.3814 4.40969 13.4484 6.54821 13.4484 9.17679C13.4487 11.8051 11.3817 13.9436 8.84094 13.9436Z" fill="#182B5A"/>
</g>
</g>
<defs>
<clipPath id="clip0_14_43">
<rect width="18" height="25" fill="white"/>
</clipPath>
</defs>
</svg>
